<?xml version="1.0" encoding="utf-8"?>
<!-- Generator: Adobe Illustrator 25.2.0, SVG Export Plug-In . SVG Version: 6.00 Build 0)  -->
<svg version="1.1" id="图层_1" xmlns="http://www.w3.org/2000/svg" xmlns:xlink="http://www.w3.org/1999/xlink" x="0px" y="0px"
	 viewBox="0 0 12 12" style="enable-background:new 0 0 12 12;" xml:space="preserve">
<style type="text/css">
	.st0{fill:#FFFFFF;}
	.st1{opacity:0.8;fill:#FFFFFF;enable-background:new    ;}
	.st2{opacity:0.5;fill:#FFFFFF;enable-background:new    ;}
</style>
<g id="编组-2" transform="translate(4.000000, 4.000000)">
	<path id="路径" class="st0" d="M7.8-1.1c0,0-0.1-0.1-0.1-0.1C7.7-1.3,7.6-1.4,7.4-1.5C5.8-2.3,4.2-3.1,2.5-3.9
		C2.4-3.9,2.3-4,2.1-4C2-4,2-4,1.9-4c-0.4,0.1-0.7,0.3-1,0.4c-1.5,0.7-3,1.4-4.4,2.2C-3.8-1.3-3.9-1.1-4-0.8c0,0,0,0,0,0
		c0,0,0,0.1,0,0.1c0,0.1,0.1,0.2,0.1,0.3c0,0,0.1,0.1,0.1,0.1C-3.7-0.2-3.6-0.1-3.5,0c1.6,0.8,3.3,1.6,4.9,2.4
		c0.1,0.1,0.3,0.1,0.4,0.2c0.2,0,0.3,0,0.5-0.1C4,1.6,5.7,0.8,7.4,0C7.4,0,7.5,0,7.5-0.1c0.2-0.1,0.3-0.2,0.4-0.4C8-0.5,8-0.6,8-0.7
		c0,0,0-0.1,0-0.1C8-0.9,7.9-1,7.8-1.1z"/>
	<path id="路径_1_" class="st1" d="M7.3,1.3c-0.2,0-0.4,0-0.5,0.1c-0.3,0.2-0.6,0.3-1,0.5C4.6,2.4,3.3,3,2.1,3.6c0,0-0.1,0-0.1,0
		C0.4,2.9-1.1,2.1-2.7,1.4c-0.3-0.1-0.5-0.2-0.8-0.1C-3.7,1.3-3.9,1.6-4,1.9c0,0,0,0,0,0C-4,2-4,2-4,2.1c0,0.1,0.1,0.2,0.1,0.3
		c0.1,0.1,0.2,0.2,0.3,0.2c1.7,0.8,3.4,1.7,5.1,2.5c0.1,0.1,0.3,0.1,0.4,0.1c0.2,0,0.3,0,0.4-0.1c1.7-0.8,3.5-1.7,5.2-2.5
		C7.8,2.6,7.9,2.4,8,2.2c0,0,0,0,0-0.1C8,2.1,8,2,8,2c0-0.1,0-0.1,0-0.2C7.8,1.5,7.6,1.3,7.3,1.3z"/>
	<path id="路径_2_" class="st2" d="M7.3,4C7.1,4,6.9,4,6.8,4.1c-0.3,0.2-0.6,0.3-1,0.5C4.6,5.1,3.3,5.7,2.1,6.3c0,0-0.1,0-0.1,0
		C0.4,5.6-1.1,4.8-2.6,4.1C-2.9,4-3.1,4-3.4,4C-3.7,4-3.9,4.2-4,4.5c0,0,0,0.1,0,0.1c0,0.1,0,0.1,0,0.2C-4,4.9-3.9,5-3.9,5.1
		c0.1,0.1,0.2,0.2,0.3,0.2C-1.9,6.2-0.2,7,1.5,7.8C1.6,7.9,1.8,8,1.9,8C2,8,2,8,2.1,8c0.1,0,0.3-0.1,0.4-0.1
		c0.2-0.1,0.3-0.1,0.5-0.2C4.5,6.9,6,6.2,7.5,5.4C7.8,5.3,7.9,5.1,8,4.9c0,0,0,0,0-0.1c0,0,0-0.1,0-0.1c0-0.1,0-0.1,0-0.2
		C7.8,4.2,7.6,4,7.3,4z"/>
</g>
</svg>
