<?xml version="1.0" encoding="UTF-8"?>
<svg width="16px" height="17px" viewBox="0 0 16 17" version="1.1" xmlns="http://www.w3.org/2000/svg" xmlns:xlink="http://www.w3.org/1999/xlink">
    <title>形状结合</title>
    <g id="页面-1" stroke="none" stroke-width="1" fill="none" fill-rule="evenodd" opacity="0.900000036">
        <g id="首页" transform="translate(-303.000000, -109.000000)" fill="#FFFFFF" fill-rule="nonzero">
            <g id="编组-5" transform="translate(40.000000, 108.000000)">
                <path d="M277.528736,1 C278.337931,1 279,1.66206897 279,2.47126437 L279,10.5448276 C279,14.737931 276.71954,17.4413793 273.206897,17.4413793 L265.942529,17.4413793 C264.324138,17.4413793 263,16.3195402 263,14.9586207 L263,14.0758621 C263,12.9355703 263.904985,11.9838169 265.133051,11.6882029 L265.133333,2.47126437 C265.133333,1.66206897 265.795402,1 266.604598,1 L277.528736,1 Z M270.702341,13.064384 L265.942529,13.0643678 C265.151724,13.0643678 264.471264,13.5241379 264.471264,14.0758621 L264.471264,14.9586207 C264.471264,15.491954 265.151724,15.9701149 265.942529,15.9701149 L270.93158,15.9710542 C270.593425,15.5109953 270.393103,14.9442586 270.393103,14.3333333 C270.393103,13.8770176 270.504863,13.4453546 270.702341,13.064384 Z M273.170115,13.045977 L273.170115,13.0643678 L272.959664,13.0631067 C272.341263,13.1647324 271.864368,13.7060679 271.864368,14.3517241 C271.864368,15.0689655 272.452874,15.6574713 273.170115,15.6574713 C273.887356,15.6574713 274.475862,15.0689655 274.475862,14.3517241 C274.475862,13.6344828 273.887356,13.045977 273.170115,13.045977 Z M277.510345,2.47126437 L266.604598,2.47126437 L266.604,11.593 L272.724523,11.5923581 C272.869698,11.568652 273.018546,11.5563218 273.170115,11.5563218 C274.696552,11.5563218 275.947126,12.8068966 275.947126,14.3333333 C275.947126,14.581941 275.913954,14.8232312 275.851819,15.0529929 C277.041714,14.0157834 277.510345,12.2510886 277.510345,10.5632184 L277.510345,2.47126437 Z M273.317241,7.60229885 C273.721839,7.60229885 274.052874,7.93333333 274.052874,8.33793103 C274.052874,8.74252874 273.721839,9.07356322 273.317241,9.07356322 L269.418391,9.07356322 C269.013793,9.07356322 268.682759,8.74252874 268.682759,8.33793103 C268.682759,7.93333333 269.013793,7.60229885 269.418391,7.60229885 L273.317241,7.60229885 Z M274.696552,4.45747126 C275.101149,4.45747126 275.432184,4.78850575 275.432184,5.19310345 C275.432184,5.59770115 275.101149,5.92873563 274.696552,5.92873563 L269.418391,5.92873563 C269.013793,5.92873563 268.682759,5.59770115 268.682759,5.19310345 C268.682759,4.78850575 269.013793,4.45747126 269.418391,4.45747126 L274.696552,4.45747126 Z" id="形状结合"></path>
            </g>
        </g>
    </g>
</svg>