<?xml version="1.0" encoding="UTF-8"?>
<svg width="12px" height="12px" viewBox="0 0 12 12" version="1.1" xmlns="http://www.w3.org/2000/svg" xmlns:xlink="http://www.w3.org/1999/xlink">
    <title>图标/1</title>
    <g id="页面-1" stroke="none" stroke-width="1" fill="none" fill-rule="evenodd">
        <g id="首页" transform="translate(-24.000000, -246.000000)" fill="#748199">
            <g id="编组-4" transform="translate(12.000000, 232.000000)">
                <g id="分组标题" transform="translate(12.000000, 12.000000)">
                    <g id="图标/1" transform="translate(0.702993, 2.890493)">
                        <path d="M8.90689725,0.000380459655 C9.33643541,0.012278566 9.71010085,0.30216329 9.82701549,0.717859823 L10.5746236,3.37602181 L10.5798442,3.39609628 C10.5940709,3.45561346 10.5973063,3.51537858 10.5907978,3.57316779 L10.5938817,3.60950666 C10.5938817,4.77448231 9.64948231,5.71888166 8.48450666,5.71888166 C7.84805503,5.71888166 7.27743826,5.4370091 6.89068246,4.99129009 C6.50407507,5.4370091 5.9334583,5.71888166 5.29700666,5.71888166 C4.66055503,5.71888166 4.08993826,5.4370091 3.70318246,4.99129009 C3.31657507,5.4370091 2.7459583,5.71888166 2.10950666,5.71888166 C0.944531019,5.71888166 0.000131663365,4.77448231 0.000131663365,3.60950666 L0.00310005448,3.57213328 C-0.00397310813,3.50816156 0.000893389464,3.44178673 0.0193897723,3.37602181 L0.766997832,0.717859823 L0.774807222,0.69149833 C0.902556502,0.28122438 1.28278257,4.4408921e-16 1.71460735,4.4408921e-16 Z M8.84375666,1.03125 L1.75016291,1.03125 L1.03109745,3.59222319 C1.03128643,3.59796111 1.03138166,3.60372277 1.03138166,3.60950666 C1.03138166,4.20493866 1.51407467,4.68763166 2.10950666,4.68763166 C2.69577817,4.68763166 3.17275289,4.2196765 3.18729027,3.63690674 L3.18763166,3.60950666 C3.18763166,3.32473484 3.41848484,3.09388166 3.70325666,3.09388166 C3.98802849,3.09388166 4.21888166,3.32473484 4.21888166,3.60950666 C4.21888166,4.20493866 4.70157467,4.68763166 5.29700666,4.68763166 C5.88327817,4.68763166 6.36025289,4.2196765 6.37479027,3.63690674 L6.37513166,3.60950666 C6.37513166,3.32473484 6.60598484,3.09388166 6.89075666,3.09388166 C7.17552849,3.09388166 7.40638166,3.32473484 7.40638166,3.60950666 C7.40638166,4.20493866 7.88907467,4.68763166 8.48450666,4.68763166 C9.07077817,4.68763166 9.54775289,4.2196765 9.56229027,3.63690674 L9.56263166,3.60950666 L9.563,3.592 L8.84375666,1.03125 Z M9.42200666,5.81263166 C9.69983283,5.81263166 9.92633846,6.03236104 9.93722224,6.30751849 L9.93763166,6.32825666 L9.93763166,9.23450666 C9.93763166,9.76924958 9.51124335,10.2044042 8.97990933,10.2185278 L8.95325666,10.2188817 L1.64075666,10.2188817 C1.10601374,10.2188817 0.670859153,9.79249335 0.656735499,9.26115933 L0.656381663,9.23450666 L0.656381663,6.32825666 C0.656381663,6.04348484 0.887234839,5.81263166 1.17200666,5.81263166 C1.44983283,5.81263166 1.67633846,6.03236104 1.68722224,6.30751849 L1.68763166,6.32825666 L1.68763166,9.18763166 L8.90638166,9.18763166 L8.90638166,6.32825666 C8.90638166,6.05043049 9.12611104,5.82392487 9.40126849,5.81304109 L9.42200666,5.81263166 Z" id="形状结合"></path>
                    </g>
                </g>
            </g>
        </g>
    </g>
</svg>