<?xml version="1.0" encoding="UTF-8"?>
<svg width="18px" height="18px" viewBox="0 0 18 18" version="1.1" xmlns="http://www.w3.org/2000/svg" xmlns:xlink="http://www.w3.org/1999/xlink">
    <title>抖音LOGO</title>
    <g id="页面-1" stroke="none" stroke-width="1" fill="none" fill-rule="evenodd" opacity="0.900000036">
        <g id="首页" transform="translate(-50.000000, -108.000000)" fill="#FFFFFF" fill-rule="nonzero">
            <g id="编组-5" transform="translate(40.000000, 108.000000)">
                <path d="M19,0 C21.4852814,0 23.7352814,1.00735931 25.363961,2.63603897 C26.9926407,4.26471863 28,6.51471863 28,9 C28,11.4852814 26.9926407,13.7352814 25.363961,15.363961 C23.7352814,16.9926407 21.4852814,18 19,18 C16.5147186,18 14.2647186,16.9926407 12.636039,15.363961 C11.0073593,13.7352814 10,11.4852814 10,9 C10,6.51471863 11.0073593,4.26471863 12.636039,2.63603897 C14.2647186,1.00735931 16.5147186,0 19,0 Z M19,1.75609756 C16.9996516,1.75609756 15.188676,2.56689896 13.8777875,3.87778746 C12.566899,5.18867597 11.7560976,6.99965158 11.7560976,9 C11.7560976,11.0003484 12.566899,12.811324 13.8777875,14.1222125 C15.188676,15.433101 16.9996516,16.2439024 19,16.2439024 C21.0003484,16.2439024 22.811324,15.433101 24.1222125,14.1222125 C25.433101,12.811324 26.2439024,11.0003484 26.2439024,9 C26.2439024,6.99965158 25.433101,5.18867597 24.1222125,3.87778746 C22.811324,2.56689896 21.0003484,1.75609756 19,1.75609756 Z M20.6056483,4.6097561 C20.6056483,5.71693624 21.4592808,6.61429746 22.5121951,6.61429745 L22.5121951,8.09857215 L22.5023166,8.09936243 C21.8107104,8.0993158 21.1378493,7.87452029 20.5851011,7.45884173 L20.5851011,10.359032 C20.5851011,11.8400139 19.4442024,13.0393932 18.036453,13.0393932 C16.6287036,13.0393932 15.4878049,11.8400139 15.4878049,10.359032 C15.4878049,8.87805015 16.6287036,7.67867085 18.036453,7.67867085 C18.1772542,7.67867085 18.3138407,7.69105187 18.4472661,7.71410167 L18.4472661,9.25027132 C18.319803,9.20019511 18.1840686,9.17450475 18.0471217,9.17453629 C17.418982,9.17453629 16.9095158,9.70968653 16.9095159,10.3706228 C16.9095159,11.0309005 17.4191138,11.5667093 18.0471217,11.5667093 C18.6744711,11.5667093 19.1839373,11.0307687 19.1839373,10.3706228 L19.1839373,4.6097561 L20.6056483,4.6097561 Z" id="形状结合"></path>
            </g>
        </g>
    </g>
</svg>
