<?xml version="1.0" encoding="UTF-8"?>
<svg width="12px" height="12px" viewBox="0 0 12 12" version="1.1" xmlns="http://www.w3.org/2000/svg" xmlns:xlink="http://www.w3.org/1999/xlink">
    <title>图标/1</title>
    <g id="页面-1" stroke="none" stroke-width="1" fill="none" fill-rule="evenodd">
        <g id="查看列表" transform="translate(-218.000000, -310.000000)" fill="#748199" fill-rule="nonzero">
            <g id="编组" transform="translate(12.000000, 292.000000)">
                <g id="图标/1" transform="translate(206.750000, 18.750000)">
                    <path d="M6.37418554,2.41575698 C6.83767931,2.41517032 7.2823587,2.59903214 7.61009855,2.926772 C7.93783841,3.25451185 8.12170023,3.69919123 8.12111216,4.16268501 L8.12111216,8.80837422 C8.13954744,9.77512002 7.34093134,10.5560397 6.37418554,10.5560397 L1.74693161,10.5560397 C1.28343783,10.5566263 0.838758448,10.3727645 0.511018592,10.0450246 C0.183278736,9.71728479 -0.000583083596,9.2726054 2.48346587e-06,8.80911163 L2.48346587e-06,4.16342242 C-0.000779198199,3.69980096 0.182996038,3.25493187 0.510757199,2.92703235 C0.83851836,2.59913284 1.28330986,2.41516987 1.74693161,2.41575698 L6.37418554,2.41575698 Z M6.37418554,3.53070233 L1.74693161,3.53070233 C1.57890294,3.52933424 1.41735251,3.59546937 1.29853424,3.71428764 C1.17971596,3.83310591 1.11358083,3.99465634 1.11494893,4.16268501 L1.11494893,8.80837422 C1.11358083,8.97640288 1.17971596,9.13795332 1.29853424,9.25677159 C1.41735251,9.37558986 1.57890294,9.44172499 1.74693161,9.44035689 L6.37418554,9.44035689 C6.54221421,9.44172499 6.70376464,9.37558986 6.82258291,9.25677159 C6.94140118,9.13795332 7.00753631,8.97640288 7.00616821,8.80837422 L7.00616821,4.16268501 C7.00753631,3.99465634 6.94140118,3.83310591 6.82258291,3.71428764 C6.70376464,3.59546937 6.54221421,3.52933424 6.37418554,3.53070233 Z M8.84598716,8.8817842e-16 C9.75863203,0.00202765661 10.4979723,0.741367975 10.5,1.65401284 L10.5,6.48552961 C10.4979723,7.39817448 9.75863203,8.1375148 8.84598716,8.13954245 C8.53809796,8.13954245 8.28850446,7.88994895 8.28850446,7.58205975 C8.28850446,7.27417055 8.53809796,7.02457704 8.84598716,7.02457704 C9.14369484,7.02457704 9.38503459,6.78323729 9.38503459,6.48552961 L9.38503459,1.65401284 C9.38503459,1.35630516 9.14369484,1.11496541 8.84598716,1.11496541 L4.01447039,1.11496541 C3.71676271,1.11496541 3.47542296,1.35630516 3.47542296,1.65401284 C3.47542296,1.96190204 3.22582945,2.21149554 2.91794025,2.21149554 C2.61005105,2.21149554 2.36045755,1.96190204 2.36045755,1.65401284 C2.3624852,0.741367975 3.10182552,0.00202765661 4.01447039,8.8817842e-16 L8.84598716,8.8817842e-16 Z" id="形状结合"></path>
                </g>
            </g>
        </g>
    </g>
</svg>