<?xml version="1.0" encoding="UTF-8"?>
<svg width="16px" height="16px" viewBox="0 0 16 16" version="1.1" xmlns="http://www.w3.org/2000/svg" xmlns:xlink="http://www.w3.org/1999/xlink">
    <title>形状结合</title>
    <g id="页面-1" stroke="none" stroke-width="1" fill="none" fill-rule="evenodd" opacity="0.900000036">
        <g id="首页" transform="translate(-221.000000, -109.000000)" fill="#FFFFFF" fill-rule="nonzero">
            <g id="编组-5" transform="translate(40.000000, 108.000000)">
                <path d="M193.290993,1.34786372 L195.29,5.347 L195.545306,5.34704555 C196.345469,5.34704555 197,6.00157613 197,6.80173976 L197,14.8017398 C197,15.6019034 196.345469,16.256434 195.545306,16.256434 L182.454694,16.256434 C181.652283,16.2540378 181.002396,15.6041506 181,14.8017398 L181,4.61997117 C181,3.38345382 181.945251,2.43820257 183.181769,2.43820257 L189.583,2.438 L192.345742,1.05714305 C192.709552,0.911509997 193.145906,1.05714305 193.290993,1.34786372 Z M194.818231,6.80228521 L194.803,6.801 L183.181769,6.80173976 C182.891048,6.80173976 182.672871,6.72919596 182.454694,6.65610671 L182.454694,14.8017398 L195.545306,14.8017398 L195.545306,6.80173976 L194.885634,6.80161098 C194.864745,6.80228521 194.842504,6.80228521 194.818231,6.80228521 Z M192.418559,8.47433811 C192.699766,8.75554508 192.699766,9.21147164 192.418559,9.49267861 L189.87298,12.0382571 C188.989294,12.9219428 187.556557,12.9219428 186.672871,12.0382571 L185.581987,10.9473728 C185.30078,10.6661659 185.30078,10.2102393 185.581987,9.92903233 C185.863194,9.64782536 186.31912,9.64782536 186.600327,9.92903233 L188.272926,11.6016307 L191.400218,8.47433811 C191.681425,8.19313115 192.137352,8.19313115 192.418559,8.47433811 Z M193.644,5.347 L192.272653,2.65692487 L186.939,5.347 L193.644,5.347 Z M183.764,5.347 L186.674,3.892 L183.181769,3.89289678 C182.745415,3.89289678 182.454694,4.18361745 182.454694,4.61997117 C182.454694,5.05632489 182.745415,5.34704555 183.181769,5.34704555 L183.764,5.347 Z" id="形状结合"></path>
            </g>
        </g>
    </g>
</svg>