<?xml version="1.0" encoding="UTF-8"?>
<svg width="18px" height="16px" viewBox="0 0 18 16" version="1.1" xmlns="http://www.w3.org/2000/svg" xmlns:xlink="http://www.w3.org/1999/xlink">
    <title>形状结合</title>
    <g id="页面-1" stroke="none" stroke-width="1" fill="none" fill-rule="evenodd" opacity="0.900000036">
        <g id="首页" transform="translate(-138.000000, -109.000000)" fill="#FFFFFF" fill-rule="nonzero">
            <g id="编组-5" transform="translate(40.000000, 108.000000)">
                <path d="M100.069941,1 C101.466702,1 102.669068,2.04217043 102.865262,3.4245312 L103.902033,10.6801253 C103.99203,11.3083075 104.537414,11.781694 105.172796,11.781694 L115.202112,11.781694 C115.6269,11.781694 115.97249,12.1272842 115.97249,12.5520722 C115.97249,12.9768601 115.6269,13.3242503 115.202112,13.3242503 L105.172796,13.3242503 C103.776036,13.3242503 102.57367,12.2820798 102.377476,10.8997191 L101.340705,3.64232502 C101.250708,3.01414284 100.705323,2.54075628 100.069941,2.54075628 L98.7703781,2.54075628 C98.3455902,2.54075628 98,2.19516608 98,1.77037814 C98,1.34559019 98.3455902,1 98.7703781,1 L100.069941,1 Z M113.175369,2.54075628 C114.032145,2.54075628 114.833122,2.92234545 115.371307,3.5901265 C115.909492,4.2561076 116.116486,5.12008308 115.936491,5.95705933 L114.92852,10.6621258 C114.851122,11.0221156 114.530731,11.2705086 114.176141,11.2705086 C114.122142,11.2705086 114.068144,11.2651087 114.014146,11.254309 C113.598357,11.1643116 113.333765,10.7557232 113.421962,10.339935 L114.429934,5.63486848 C114.510931,5.2532793 114.417334,4.86269039 114.172541,4.55849902 C113.927748,4.2561076 113.564158,4.08151256 113.173569,4.08151256 L104.418618,4.08151256 C103.99383,4.08151256 103.64824,3.73592236 103.64824,3.31113442 C103.64824,2.88634647 103.99383,2.54075628 104.418618,2.54075628 L113.175369,2.54075628 Z M103.903832,15.1205993 C103.903832,15.4877865 104.099724,15.8270814 104.417718,16.010675 C104.735711,16.1942686 105.127495,16.1942686 105.445489,16.010675 C105.763482,15.8270814 105.959374,15.4877865 105.959374,15.1205993 C105.959374,14.7534121 105.763482,14.4141172 105.445489,14.2305236 C105.127495,14.04693 104.735711,14.04693 104.417718,14.2305236 C104.099724,14.4141172 103.903832,14.7534121 103.903832,15.1205993 Z M112.120599,15.1205993 C112.120599,15.6882215 112.580748,16.1483701 113.14837,16.1483701 C113.715992,16.1483701 114.176141,15.6882215 114.176141,15.1205993 C114.176141,14.5529771 113.715992,14.0928285 113.14837,14.0928285 C112.580748,14.0928285 112.120599,14.5529771 112.120599,15.1205993 L112.120599,15.1205993 Z" id="形状结合"></path>
            </g>
        </g>
    </g>
</svg>